<svg width="130" height="37" viewBox="0 0 130 37" fill="none" xmlns="http://www.w3.org/2000/svg">
<rect width="129.324" height="37" fill="#00235C"/>
<path d="M51.6983 13.774H54.4597L56.8023 19.4862H56.9104L59.2529 13.774H62.0144V23H59.8431V17.3329H59.7665L57.5501 22.9414H56.1626L53.9462 17.3013H53.8696V23H51.6983V13.774ZM65.6096 23.1171C65.1681 23.1171 64.7762 23.0435 64.4338 22.8964C64.0945 22.7462 63.8257 22.521 63.6275 22.2207C63.4323 21.9173 63.3346 21.5374 63.3346 21.0809C63.3346 20.6965 63.4022 20.3722 63.5374 20.1079C63.6725 19.8436 63.8587 19.6289 64.096 19.4637C64.3332 19.2985 64.6065 19.1739 64.9159 19.0898C65.2252 19.0027 65.5555 18.9441 65.9069 18.9141C66.3004 18.878 66.6172 18.8405 66.8575 18.8015C67.0977 18.7594 67.2719 18.7009 67.38 18.6258C67.4911 18.5477 67.5467 18.4381 67.5467 18.2969V18.2744C67.5467 18.0431 67.4671 17.8644 67.3079 17.7383C67.1488 17.6122 66.934 17.5491 66.6637 17.5491C66.3724 17.5491 66.1382 17.6122 65.961 17.7383C65.7838 17.8644 65.6712 18.0386 65.6231 18.2609L63.5914 18.1888C63.6515 17.7683 63.8062 17.3929 64.0554 17.0626C64.3077 16.7292 64.6531 16.4679 65.0915 16.2787C65.533 16.0865 66.0631 15.9904 66.6818 15.9904C67.1232 15.9904 67.5302 16.043 67.9026 16.1481C68.275 16.2502 68.5993 16.4004 68.8756 16.5986C69.1519 16.7938 69.3652 17.0341 69.5153 17.3194C69.6685 17.6047 69.7451 17.9305 69.7451 18.2969V23H67.6728V22.036H67.6188C67.4956 22.2702 67.338 22.4684 67.1458 22.6306C66.9566 22.7928 66.7328 22.9144 66.4745 22.9955C66.2193 23.0766 65.931 23.1171 65.6096 23.1171ZM66.2898 21.6756C66.5271 21.6756 66.7403 21.6275 66.9295 21.5314C67.1217 21.4353 67.2749 21.3032 67.389 21.135C67.5032 20.9638 67.5602 20.7656 67.5602 20.5403V19.8826C67.4971 19.9157 67.4206 19.9457 67.3305 19.9727C67.2434 19.9998 67.1473 20.0253 67.0422 20.0493C66.937 20.0733 66.8289 20.0944 66.7178 20.1124C66.6067 20.1304 66.5001 20.1469 66.398 20.1619C66.1907 20.195 66.0135 20.246 65.8664 20.3151C65.7222 20.3842 65.6111 20.4743 65.533 20.5854C65.4579 20.6935 65.4204 20.8226 65.4204 20.9728C65.4204 21.2011 65.5015 21.3752 65.6637 21.4954C65.8288 21.6155 66.0376 21.6756 66.2898 21.6756ZM71.3457 23V16.0805H73.5486V23H71.3457ZM72.4494 15.2741C72.1401 15.2741 71.8743 15.172 71.6521 14.9678C71.4298 14.7606 71.3187 14.5113 71.3187 14.22C71.3187 13.9317 71.4298 13.6854 71.6521 13.4812C71.8743 13.274 72.1401 13.1704 72.4494 13.1704C72.7618 13.1704 73.0276 13.274 73.2468 13.4812C73.469 13.6854 73.5802 13.9317 73.5802 14.22C73.5802 14.5113 73.469 14.7606 73.2468 14.9678C73.0276 15.172 72.7618 15.2741 72.4494 15.2741ZM78.1836 23V13.774H82.0308C82.7215 13.774 83.2997 13.8716 83.7652 14.0668C84.2337 14.2621 84.5851 14.5353 84.8193 14.8867C85.0566 15.2381 85.1752 15.645 85.1752 16.1075C85.1752 16.4589 85.1016 16.7728 84.9545 17.0491C84.8073 17.3224 84.6046 17.5491 84.3463 17.7293C84.088 17.9095 83.7892 18.0356 83.4498 18.1077V18.1978C83.8222 18.2158 84.1661 18.3164 84.4815 18.4996C84.7998 18.6828 85.0551 18.9381 85.2473 19.2655C85.4395 19.5898 85.5356 19.9742 85.5356 20.4187C85.5356 20.9142 85.4095 21.3572 85.1572 21.7476C84.9049 22.1351 84.54 22.4414 84.0625 22.6666C83.585 22.8889 83.0054 23 82.3236 23H78.1836ZM80.4136 21.2026H81.792C82.2756 21.2026 82.6315 21.111 82.8597 20.9278C83.0909 20.7446 83.2066 20.4893 83.2066 20.1619C83.2066 19.9247 83.151 19.7205 83.0399 19.5493C82.9288 19.3751 82.7711 19.2414 82.5669 19.1483C82.3627 19.0522 82.1179 19.0042 81.8326 19.0042H80.4136V21.2026ZM80.4136 17.5671H81.6479C81.8912 17.5671 82.1074 17.5266 82.2966 17.4455C82.4858 17.3644 82.633 17.2473 82.7381 17.0941C82.8462 16.941 82.9002 16.7563 82.9002 16.54C82.9002 16.2307 82.7906 15.9874 82.5714 15.8102C82.3522 15.633 82.0563 15.5444 81.6839 15.5444H80.4136V17.5671ZM88.8121 23.1171C88.3706 23.1171 87.9787 23.0435 87.6363 22.8964C87.2969 22.7462 87.0281 22.521 86.8299 22.2207C86.6347 21.9173 86.5371 21.5374 86.5371 21.0809C86.5371 20.6965 86.6047 20.3722 86.7398 20.1079C86.875 19.8436 87.0612 19.6289 87.2984 19.4637C87.5357 19.2985 87.809 19.1739 88.1183 19.0898C88.4277 19.0027 88.758 18.9441 89.1094 18.9141C89.5028 18.878 89.8197 18.8405 90.0599 18.8015C90.3002 18.7594 90.4744 18.7009 90.5825 18.6258C90.6936 18.5477 90.7492 18.4381 90.7492 18.2969V18.2744C90.7492 18.0431 90.6696 17.8644 90.5104 17.7383C90.3512 17.6122 90.1365 17.5491 89.8662 17.5491C89.5749 17.5491 89.3406 17.6122 89.1635 17.7383C88.9863 17.8644 88.8736 18.0386 88.8256 18.2609L86.7939 18.1888C86.854 17.7683 87.0086 17.3929 87.2579 17.0626C87.5102 16.7292 87.8555 16.4679 88.294 16.2787C88.7355 16.0865 89.2656 15.9904 89.8842 15.9904C90.3257 15.9904 90.7327 16.043 91.1051 16.1481C91.4775 16.2502 91.8018 16.4004 92.0781 16.5986C92.3544 16.7938 92.5676 17.0341 92.7178 17.3194C92.871 17.6047 92.9475 17.9305 92.9475 18.2969V23H90.8753V22.036H90.8212C90.6981 22.2702 90.5404 22.4684 90.3482 22.6306C90.159 22.7928 89.9353 22.9144 89.677 22.9955C89.4217 23.0766 89.1334 23.1171 88.8121 23.1171ZM89.4923 21.6756C89.7296 21.6756 89.9428 21.6275 90.132 21.5314C90.3242 21.4353 90.4774 21.3032 90.5915 21.135C90.7056 20.9638 90.7627 20.7656 90.7627 20.5403V19.8826C90.6996 19.9157 90.623 19.9457 90.5329 19.9727C90.4458 19.9998 90.3497 20.0253 90.2446 20.0493C90.1395 20.0733 90.0314 20.0944 89.9203 20.1124C89.8092 20.1304 89.7025 20.1469 89.6004 20.1619C89.3932 20.195 89.216 20.246 89.0689 20.3151C88.9247 20.3842 88.8136 20.4743 88.7355 20.5854C88.6604 20.6935 88.6229 20.8226 88.6229 20.9728C88.6229 21.2011 88.704 21.3752 88.8661 21.4954C89.0313 21.6155 89.24 21.6756 89.4923 21.6756ZM97.0754 23.0991C96.5649 23.0991 96.1009 22.967 95.6834 22.7027C95.266 22.4384 94.9326 22.042 94.6834 21.5134C94.4341 20.9848 94.3095 20.3286 94.3095 19.5448C94.3095 18.7309 94.4386 18.0612 94.6969 17.5356C94.9552 17.01 95.293 16.6211 95.7105 16.3688C96.1309 16.1166 96.5829 15.9904 97.0664 15.9904C97.4298 15.9904 97.7407 16.0535 97.9989 16.1796C98.2572 16.3028 98.4705 16.4619 98.6386 16.6571C98.8068 16.8524 98.9345 17.0551 99.0216 17.2653H99.0666V13.774H101.269V23H99.0891V21.8783H99.0216C98.9285 22.0915 98.7963 22.2912 98.6251 22.4774C98.4539 22.6636 98.2392 22.8138 97.9809 22.9279C97.7257 23.042 97.4238 23.0991 97.0754 23.0991ZM97.8413 21.3828C98.1086 21.3828 98.3368 21.3077 98.526 21.1575C98.7152 21.0043 98.8609 20.7896 98.963 20.5133C99.0651 20.237 99.1162 19.9127 99.1162 19.5403C99.1162 19.1619 99.0651 18.836 98.963 18.5627C98.8639 18.2894 98.7182 18.0792 98.526 17.932C98.3368 17.7849 98.1086 17.7113 97.8413 17.7113C97.568 17.7113 97.3367 17.7864 97.1475 17.9365C96.9583 18.0867 96.8142 18.2984 96.7151 18.5717C96.619 18.845 96.5709 19.1679 96.5709 19.5403C96.5709 19.9127 96.6205 20.237 96.7196 20.5133C96.8187 20.7896 96.9613 21.0043 97.1475 21.1575C97.3367 21.3077 97.568 21.3828 97.8413 21.3828ZM102.916 23V16.0805H105.056V17.3419H105.128C105.254 16.8854 105.46 16.546 105.745 16.3238C106.031 16.0985 106.363 15.9859 106.741 15.9859C106.843 15.9859 106.948 15.9934 107.056 16.0084C107.164 16.0205 107.265 16.04 107.358 16.067V17.9816C107.253 17.9455 107.115 17.917 106.944 17.896C106.775 17.875 106.625 17.8644 106.493 17.8644C106.232 17.8644 105.996 17.923 105.786 18.0401C105.579 18.1543 105.415 18.3149 105.295 18.5222C105.178 18.7264 105.119 18.9666 105.119 19.2429V23H102.916ZM110.2 23.1171C109.758 23.1171 109.366 23.0435 109.024 22.8964C108.685 22.7462 108.416 22.521 108.218 22.2207C108.023 21.9173 107.925 21.5374 107.925 21.0809C107.925 20.6965 107.993 20.3722 108.128 20.1079C108.263 19.8436 108.449 19.6289 108.686 19.4637C108.924 19.2985 109.197 19.1739 109.506 19.0898C109.815 19.0027 110.146 18.9441 110.497 18.9141C110.891 18.878 111.207 18.8405 111.448 18.8015C111.688 18.7594 111.862 18.7009 111.97 18.6258C112.081 18.5477 112.137 18.4381 112.137 18.2969V18.2744C112.137 18.0431 112.057 17.8644 111.898 17.7383C111.739 17.6122 111.524 17.5491 111.254 17.5491C110.963 17.5491 110.728 17.6122 110.551 17.7383C110.374 17.8644 110.261 18.0386 110.213 18.2609L108.182 18.1888C108.242 17.7683 108.396 17.3929 108.646 17.0626C108.898 16.7292 109.243 16.4679 109.682 16.2787C110.123 16.0865 110.653 15.9904 111.272 15.9904C111.714 15.9904 112.12 16.043 112.493 16.1481C112.865 16.2502 113.19 16.4004 113.466 16.5986C113.742 16.7938 113.955 17.0341 114.106 17.3194C114.259 17.6047 114.335 17.9305 114.335 18.2969V23H112.263V22.036H112.209C112.086 22.2702 111.928 22.4684 111.736 22.6306C111.547 22.7928 111.323 22.9144 111.065 22.9955C110.81 23.0766 110.521 23.1171 110.2 23.1171ZM110.88 21.6756C111.117 21.6756 111.331 21.6275 111.52 21.5314C111.712 21.4353 111.865 21.3032 111.979 21.135C112.093 20.9638 112.15 20.7656 112.15 20.5403V19.8826C112.087 19.9157 112.011 19.9457 111.921 19.9727C111.834 19.9998 111.738 20.0253 111.632 20.0493C111.527 20.0733 111.419 20.0944 111.308 20.1124C111.197 20.1304 111.09 20.1469 110.988 20.1619C110.781 20.195 110.604 20.246 110.457 20.3151C110.313 20.3842 110.201 20.4743 110.123 20.5854C110.048 20.6935 110.011 20.8226 110.011 20.9728C110.011 21.2011 110.092 21.3752 110.254 21.4954C110.419 21.6155 110.628 21.6756 110.88 21.6756ZM118.139 19.0537V23H115.936V16.0805H118.031V17.3509H118.107C118.261 16.9274 118.522 16.5956 118.891 16.3553C119.261 16.1121 119.701 15.9904 120.211 15.9904C120.698 15.9904 121.12 16.1 121.477 16.3193C121.837 16.5355 122.117 16.8388 122.315 17.2293C122.516 17.6167 122.615 18.0702 122.612 18.5897V23H120.409V19.0222C120.412 18.6378 120.315 18.3375 120.117 18.1212C119.921 17.905 119.65 17.7969 119.301 17.7969C119.07 17.7969 118.866 17.8479 118.689 17.95C118.514 18.0491 118.379 18.1918 118.283 18.378C118.19 18.5642 118.142 18.7894 118.139 19.0537Z" fill="white"/>
<rect width="45" height="37" fill="white"/>
<path d="M14.3039 27H8.24134V10.5983H14.2959C15.967 10.5983 17.4059 10.9266 18.6126 11.5833C19.8245 12.2347 20.7589 13.1744 21.4156 14.4024C22.0723 15.625 22.4006 17.088 22.4006 18.7911C22.4006 20.4996 22.0723 21.9679 21.4156 23.1959C20.7642 24.4239 19.8325 25.3662 18.6206 26.0229C17.4086 26.6743 15.9697 27 14.3039 27ZM12.2056 23.6203H14.1517C15.0701 23.6203 15.8469 23.4655 16.4823 23.1558C17.1229 22.8408 17.6061 22.331 17.9318 21.6262C18.2628 20.9161 18.4284 19.9711 18.4284 18.7911C18.4284 17.6112 18.2628 16.6715 17.9318 15.9721C17.6008 15.2673 17.1123 14.7601 16.4662 14.4504C15.8255 14.1354 15.0354 13.9779 14.0957 13.9779H12.2056V23.6203ZM25.1662 27V10.5983H31.9415C33.1695 10.5983 34.2293 10.8198 35.121 11.263C36.0179 11.7008 36.7093 12.3308 37.1952 13.153C37.6811 13.9699 37.924 14.939 37.924 16.0602C37.924 17.1974 37.6757 18.1638 37.1792 18.9593C36.6826 19.7495 35.9779 20.3528 35.0649 20.7693C34.1519 21.1804 33.0707 21.3859 31.8214 21.3859H27.5368V18.2626H31.0846C31.6826 18.2626 32.1818 18.1851 32.5822 18.0303C32.988 17.8701 33.295 17.6299 33.5032 17.3095C33.7114 16.9838 33.8155 16.5674 33.8155 16.0602C33.8155 15.553 33.7114 15.1338 33.5032 14.8028C33.295 14.4665 32.988 14.2155 32.5822 14.05C32.1764 13.8791 31.6772 13.7937 31.0846 13.7937H29.1305V27H25.1662ZM34.4002 19.5039L38.4846 27H34.1599L30.1556 19.5039H34.4002Z" fill="#00235C"/>
</svg>
